<svg xmlns="http://www.w3.org/2000/svg" viewBox="0 0 40 40"><defs><style>.a,.b{fill:none;stroke:#000;stroke-miterlimit:10;}.a{stroke-width:2px;}.b{stroke-width:4px;}.c{fill:#218272;}</style></defs><title>borderSides</title><circle class="a" cx="34.4" cy="5.3" r="3.6"/><circle class="a" cx="25.5" cy="5.3" r="3.6"/><circle class="a" cx="25.5" cy="14.2" r="3.6"/><circle class="a" cx="34.4" cy="14.2" r="3.6"/><line class="b" x1="40" y1="10" x2="20" y2="10"/><line class="b" x1="30" x2="30" y2="20"/><circle class="a" cx="34.4" cy="25.3" r="3.6"/><circle class="a" cx="25.5" cy="25.3" r="3.6"/><circle class="a" cx="25.5" cy="34.2" r="3.6"/><circle class="a" cx="34.4" cy="34.2" r="3.6"/><line class="b" x1="40" y1="30" x2="20" y2="30"/><line class="b" x1="30" y1="20" x2="30" y2="40"/><polygon class="c" points="15.8 5.8 9.8 16.5 3.8 5.8 15.8 5.8"/><polygon class="c" points="15.8 13.8 3.8 13.8 9.8 3.1 15.8 13.8"/><polygon class="c" points="15.8 25.8 9.8 36.5 3.8 25.8 15.8 25.8"/><polygon class="c" points="15.8 33.8 3.8 33.8 9.8 23.1 15.8 33.8"/></svg>