<svg xmlns="http://www.w3.org/2000/svg" viewBox="0 0 40 40"><defs><style>.a,.b{fill:none;stroke:#000;stroke-miterlimit:10;}.a{stroke-width:2px;}.b{stroke-width:4px;}.c{fill:#218272;}</style></defs><title>borderBelow</title><circle class="a" cx="34.7" cy="34.4" r="3.6"/><circle class="a" cx="34.7" cy="25.5" r="3.6"/><circle class="a" cx="25.8" cy="25.5" r="3.6"/><circle class="a" cx="25.8" cy="34.4" r="3.6"/><line class="b" x1="30" y1="40" x2="30" y2="20"/><line class="b" x1="40" y1="30" x2="20" y2="30"/><circle class="a" cx="14.7" cy="34.4" r="3.6"/><circle class="a" cx="14.7" cy="25.5" r="3.6"/><circle class="a" cx="5.8" cy="25.5" r="3.6"/><circle class="a" cx="5.8" cy="34.4" r="3.6"/><line class="b" x1="10" y1="40" x2="10" y2="20"/><line class="b" x1="20" y1="30" y2="30"/><polygon class="c" points="34.2 15.8 23.5 9.8 34.2 3.8 34.2 15.8"/><polygon class="c" points="26.2 15.8 26.2 3.8 36.9 9.8 26.2 15.8"/><polygon class="c" points="14.2 15.8 3.5 9.8 14.2 3.8 14.2 15.8"/><polygon class="c" points="6.2 15.8 6.2 3.8 16.9 9.8 6.2 15.8"/></svg>