<svg xmlns="http://www.w3.org/2000/svg" viewBox="0 0 40 40"><defs><style>.a,.b{fill:none;stroke:#000;stroke-miterlimit:10;}.a{stroke-width:2px;}.b{stroke-width:4px;}</style></defs><title>corner1Outside</title><circle class="a" cx="25.3" cy="5.5" r="3.6"/><circle class="a" cx="25.3" cy="14.4" r="3.6"/><circle class="a" cx="34.2" cy="14.4" r="3.6"/><circle class="a" cx="34.2" cy="5.5" r="3.6"/><line class="b" x1="30" x2="30" y2="20"/><line class="b" x1="20" y1="10" x2="40" y2="10"/><circle class="a" cx="5.4" cy="5.5" r="3.6"/><circle class="a" cx="5.4" cy="14.4" r="3.6"/><circle class="a" cx="14.3" cy="14.4" r="3.6"/><circle class="a" cx="14.3" cy="5.5" r="3.6"/><line class="b" x1="10" x2="10" y2="20"/><line class="b" y1="10" x2="20" y2="10"/><circle class="a" cx="25.3" cy="25.5" r="3.6"/><circle class="a" cx="25.3" cy="34.4" r="3.6"/><circle class="a" cx="34.2" cy="34.4" r="3.6"/><circle class="a" cx="34.2" cy="25.5" r="3.6"/><line class="b" x1="30" y1="20" x2="30" y2="40"/><line class="b" x1="20" y1="30" x2="40" y2="30"/><circle class="a" cx="5.4" cy="25.5" r="3.6"/><circle class="a" cx="5.4" cy="34.4" r="3.6"/><circle class="a" cx="14.2" cy="34.4" r="3.6"/><circle class="a" cx="14.2" cy="25.5" r="3.6"/><line class="b" x1="10" y1="20" x2="10" y2="40"/><line class="b" y1="30" x2="20" y2="30"/></svg>