<svg xmlns="http://www.w3.org/2000/svg" viewBox="0 0 80 80"><defs><style>.a{fill:#218272;}.b{fill:none;stroke:#218272;stroke-miterlimit:10;stroke-width:2px;}</style></defs><title>mainBack-06</title><path d="M0,0V40H40V0ZM32.7,1a.94.94,0,0,1,1,1,1,1,0,1,1-2,0A.94.94,0,0,1,32.7,1ZM27.5,1a.94.94,0,0,1,1,1,1,1,0,1,1-2,0,1.08,1.08,0,0,1,1-1ZM22.4,1a.94.94,0,0,1,1,1,1,1,0,1,1-2,0,1,1,0,0,1,1-1ZM17.2,1a.94.94,0,0,1,1,1,1,1,0,1,1-2,0,1.08,1.08,0,0,1,1-1ZM12.1,1a.94.94,0,0,1,1,1,1,1,0,0,1-2,0,1,1,0,0,1,1-1ZM7,1A.94.94,0,0,1,8,2,.94.94,0,0,1,7,3,.94.94,0,0,1,6,2,1,1,0,0,1,7,1ZM1.8,39a1,1,0,0,1,0-2,1,1,0,1,1,0,2Zm0-5.1a1,1,0,0,1,0-2,1,1,0,0,1,0,2Zm0-5.2a1,1,0,0,1,0-2,.94.94,0,0,1,1,1,1,1,0,0,1-1,1Zm0-5.1a1,1,0,0,1,0-2,.94.94,0,0,1,1,1,1.08,1.08,0,0,1-1,1Zm0-5.2a1,1,0,0,1,0-2,.94.94,0,0,1,1,1,1,1,0,0,1-1,1Zm0-5.1a1,1,0,0,1,0-2,.94.94,0,0,1,1,1,1.08,1.08,0,0,1-1,1Zm0-5.1a.94.94,0,0,1-1-1,.94.94,0,0,1,1-1,.94.94,0,0,1,1,1,1.17,1.17,0,0,1-1,1ZM1.8,3a.94.94,0,0,1-1-1,.94.94,0,0,1,1-1,.94.94,0,0,1,1,1A.94.94,0,0,1,1.8,3ZM6.9,39a1,1,0,1,1,0-2,1,1,0,0,1,0,2Zm5.2,0a1,1,0,1,1,1-1,1.08,1.08,0,0,1-1,1Zm5.1,0a1,1,0,1,1,1-1,1,1,0,0,1-1,1Zm5.2,0a1,1,0,1,1,1-1,1.08,1.08,0,0,1-1,1Zm5.1,0a1,1,0,1,1,1-1,1,1,0,0,1-1,1Zm5.1,0a1,1,0,1,1,1-1,1,1,0,0,1-1,1Zm1.1-18.9-6.1,1.6,4.5,4.4a.48.48,0,0,1,0,.7.44.44,0,0,1-.5.1l-6.1-1.7,1.7,6.1a.49.49,0,0,1-.3.6.44.44,0,0,1-.5-.1L22,27.3l-1.5,6.1a.5.5,0,0,1-1,0L18,27.3l-4.4,4.5a.48.48,0,0,1-.7,0,.44.44,0,0,1-.1-.5l1.7-6.1L8.4,26.9c-.3.1-.5-.1-.6-.4a.75.75,0,0,1,.1-.5l4.5-4.4L6.3,20.1a.5.5,0,0,1,0-1l6.1-1.5L7.9,13.2a.48.48,0,0,1,0-.7.44.44,0,0,1,.5-.1l6.1,1.7L12.8,8a.49.49,0,0,1,.3-.6.44.44,0,0,1,.5.1L18,12l1.5-6.1a.5.5,0,1,1,1,0L22,12l4.4-4.5a.48.48,0,0,1,.7,0,.44.44,0,0,1,.1.5l-1.6,6.2,6.1-1.7c.3-.1.5.1.6.4a.75.75,0,0,1-.1.5l-4.6,4.3,6.1,1.5a.45.45,0,0,1,.3.6.27.27,0,0,1-.3.3ZM37.8,39a1,1,0,1,1,1-1A.94.94,0,0,1,37.8,39Zm0-5.1a1,1,0,1,1,1-1A.94.94,0,0,1,37.8,33.9Zm0-5.2a1,1,0,1,1,1-1,1,1,0,0,1-1,1Zm0-5.1a1,1,0,1,1,1-1,1.08,1.08,0,0,1-1,1Zm0-5.2a1,1,0,1,1,1-1,1,1,0,0,1-1,1Zm0-5.1a1,1,0,1,1,1-1,1.08,1.08,0,0,1-1,1Zm0-5.1a.94.94,0,0,1-1-1,1,1,0,0,1,2,0,1.17,1.17,0,0,1-1,1Zm0-5.2a.94.94,0,0,1-1-1,1,1,0,0,1,2,0A.94.94,0,0,1,37.8,3Z"/><path d="M40,40V80H80V40Zm8.4,2a1,1,0,1,1-1-1A.94.94,0,0,1,48.4,42Zm5.2,0a1,1,0,1,1-1-1,1,1,0,0,1,1,1Zm5.1,0a1,1,0,1,1-1-1,.94.94,0,0,1,1,1Zm5.2,0a1,1,0,1,1-1-1,1,1,0,0,1,1,1ZM69,42a1,1,0,1,1-1-1,.94.94,0,0,1,1,1Zm5.1,0a1,1,0,1,1-1-1,.94.94,0,0,1,1,1Zm3.2,36a1,1,0,1,1,1,1,1,1,0,0,1-1-1Zm0-5.1a1,1,0,1,1,1,1,1.07,1.07,0,0,1-1-1Zm0-5.2a1,1,0,1,1,1,1,.94.94,0,0,1-1-1Zm0-5.1a1,1,0,1,1,1,1,1,1,0,0,1-1-1Zm0-5.2a1,1,0,1,1,1,1,.94.94,0,0,1-1-1Zm0-5.1a1,1,0,1,1,1,1,1,1,0,0,1-1-1Zm0-5.1a1,1,0,1,1,1,1,1.07,1.07,0,0,1-1-1Zm0-5.2a1,1,0,1,1,1,1,.94.94,0,0,1-1-1ZM72.1,78a1,1,0,1,1,1,1,1,1,0,0,1-1-1ZM67,78a1,1,0,1,1,1,1,.94.94,0,0,1-1-1Zm-5.1,0a1,1,0,1,1,1,1,.94.94,0,0,1-1-1Zm-5.2,0a1,1,0,1,1,1,1,1,1,0,0,1-1-1Zm-5.1,0a1,1,0,1,1,1,1,.94.94,0,0,1-1-1Zm-5.2,0a1,1,0,1,1,1,1,1,1,0,0,1-1-1ZM46,59.6a.66.66,0,0,1,.4-.5l6.1-1.5L48,53.2a.48.48,0,0,1,0-.7.44.44,0,0,1,.5-.1l6.1,1.7L52.9,48a.49.49,0,0,1,.3-.6.44.44,0,0,1,.5.1L58.1,52l1.5-6.1a.5.5,0,1,1,1,0L62.1,52l4.4-4.5a.48.48,0,0,1,.7,0,.44.44,0,0,1,.1.5l-1.7,6.1,6.1-1.7c.3-.1.5.1.6.4a.75.75,0,0,1-.1.5l-4.5,4.4,6.1,1.5a.5.5,0,0,1,0,1l-6.1,1.5,4.5,4.4a.48.48,0,0,1,0,.7.44.44,0,0,1-.5.1l-6.1-1.7,1.7,6.1a.49.49,0,0,1-.3.6.44.44,0,0,1-.5-.1l-4.4-4.5-1.5,6.1a.5.5,0,0,1-1,0l-1.5-6.1-4.4,4.5a.48.48,0,0,1-.7,0,.44.44,0,0,1-.1-.5l1.7-6.1-6.1,1.7c-.3.1-.5-.1-.6-.4A.75.75,0,0,1,48,66l4.5-4.4-6.1-1.5C46.1,60.1,46,59.9,46,59.6ZM41.3,78a1,1,0,1,1,1,1A.94.94,0,0,1,41.3,78Zm0-5.1a1,1,0,1,1,1,1A1,1,0,0,1,41.3,72.9Zm0-5.2a1,1,0,1,1,1,1,.94.94,0,0,1-1-1Zm0-5.1a1,1,0,1,1,1,1,1,1,0,0,1-1-1Zm0-5.2a1,1,0,1,1,1,1,.94.94,0,0,1-1-1Zm0-5.1a1,1,0,1,1,1,1,.94.94,0,0,1-1-1Zm0-5.1a1,1,0,1,1,1,1,1,1,0,0,1-1-1Zm0-5.2a1,1,0,1,1,1,1,.94.94,0,0,1-1-1Z"/><path class="a" d="M49.8.5A9.56,9.56,0,0,0,40.3,10a9.5,9.5,0,1,0,19,0h0A9.56,9.56,0,0,0,49.8.5Zm7.7,11.2c0,.2-.3.4-.5.4L54.4,12l1.9,1.7a.48.48,0,0,1,0,.7c-.1.2-.4.2-.6.1l-2.3-1,1.1,2.4a.66.66,0,0,1-.2.7.47.47,0,0,1-.6-.1l-1.8-1.8.2,2.5a.44.44,0,0,1-.4.6c-.3,0-.6-.1-.6-.4L50,15.1l-.7,2.4a.66.66,0,0,1-.5.4h0a.46.46,0,0,1-.4-.5l-.2-2.5-1.6,2a.62.62,0,0,1-.7.1c-.2-.1-.2-.3-.2-.5l.8-2.4-2.2,1.3a.53.53,0,0,1-.7-.2.64.64,0,0,1,0-.6l1.6-2-2.5.4a.71.71,0,0,1-.6-.3.48.48,0,0,1,.2-.6l2.2-1.3L42,10.3a.5.5,0,1,1,0-1l2.5-.4L42.3,7.5a.49.49,0,0,1-.1-.7.37.37,0,0,1,.5-.2l2.5.5-1.5-2a.49.49,0,0,1,.1-.7.64.64,0,0,1,.6,0l2.1,1.4-.7-2.5c-.1-.3.1-.5.4-.6a.37.37,0,0,1,.5.2L48.2,5l.3-2.5a.5.5,0,1,1,1,0l.6,2.4,1.2-2.3a.57.57,0,0,1,.7-.2.55.55,0,0,1,.3.5l-.2,2.7L54,3.9a.43.43,0,0,1,.7.1.66.66,0,0,1,.1.6L53.6,6.8,56,5.9a.42.42,0,0,1,.6.3.66.66,0,0,1-.1.6L54.6,8.5h2.6a.51.51,0,0,1,.2,1l-2.4.9,2.4,1C57.4,11.2,57.6,11.5,57.5,11.7Z"/><path class="a" d="M57.2,1.8a.86.86,0,0,1,.8.8.8.8,0,0,1-1.6,0h0a.79.79,0,0,1,.8-.8m0-1.3a2.05,2.05,0,0,0-2.1,2.1,2.1,2.1,0,0,0,4.2,0h0A2.05,2.05,0,0,0,57.2.5Z"/><path class="a" d="M57.2,16.6a.8.8,0,1,1-.8.8h0a.74.74,0,0,1,.8-.8m0-1.3a2.1,2.1,0,1,0,2.1,2.1h0a2.05,2.05,0,0,0-2.1-2.1Z"/><circle class="b" cx="49.8" cy="10" r="2"/><path class="a" d="M42.4,1.8a.86.86,0,0,1,.8.8.8.8,0,0,1-1.6,0h0a.86.86,0,0,1,.8-.8m0-1.3a2.05,2.05,0,0,0-2.1,2.1,2.1,2.1,0,0,0,4.2,0h0A2.05,2.05,0,0,0,42.4.5Z"/><path class="a" d="M42.4,16.6a.8.8,0,1,1-.8.8h0a.79.79,0,0,1,.8-.8m0-1.3a2.1,2.1,0,1,0,2.1,2.1h0a2.05,2.05,0,0,0-2.1-2.1Z"/><path class="a" d="M69.8.5A9.56,9.56,0,0,0,60.3,10a9.5,9.5,0,0,0,19,0h0A9.56,9.56,0,0,0,69.8.5Zm7.7,11.2c0,.2-.3.4-.5.4L74.4,12l1.9,1.7a.48.48,0,0,1,0,.7c-.1.2-.4.2-.6.1l-2.3-1,1.1,2.3a.66.66,0,0,1-.2.7.47.47,0,0,1-.6-.1l-1.8-1.8.2,2.5a.44.44,0,0,1-.4.6c-.3,0-.6-.1-.6-.4L70,15l-.7,2.4a.66.66,0,0,1-.5.4h0a.46.46,0,0,1-.4-.5l-.2-2.5-1.6,2a.62.62,0,0,1-.7.1c-.2-.1-.2-.3-.2-.5l.8-2.4-2.2,1.3a.53.53,0,0,1-.7-.2.64.64,0,0,1,0-.6l1.6-2-2.5.4a.71.71,0,0,1-.6-.3.48.48,0,0,1,.2-.6l2.2-1.3L62,10.2a.5.5,0,0,1,0-1l2.5-.4L62.3,7.4a.49.49,0,0,1-.1-.7.37.37,0,0,1,.5-.2l2.5.5L63.7,5a.49.49,0,0,1,.1-.7.64.64,0,0,1,.6,0l2.1,1.4-.7-2.5c-.1-.3.1-.5.4-.6a.37.37,0,0,1,.5.2l1.5,2.1.4-2.3a.5.5,0,1,1,1,0l.6,2.5,1.2-2.3a.57.57,0,0,1,.7-.2.55.55,0,0,1,.3.5l-.3,2.5L74,3.9a.43.43,0,0,1,.7.1.66.66,0,0,1,.1.6L73.6,6.8,76,5.9a.42.42,0,0,1,.6.3.66.66,0,0,1-.1.6L74.6,8.5h2.6a.51.51,0,0,1,.2,1l-2.4.9,2.4,1C77.4,11.2,77.6,11.5,77.5,11.7Z"/><path class="a" d="M77.2,1.8a.86.86,0,0,1,.8.8.8.8,0,0,1-1.6,0h0a.79.79,0,0,1,.8-.8m0-1.3a2.05,2.05,0,0,0-2.1,2.1,2.1,2.1,0,0,0,4.2,0h0A2.05,2.05,0,0,0,77.2.5Z"/><path class="a" d="M77.2,16.6a.8.8,0,1,1-.8.8h0a.74.74,0,0,1,.8-.8m0-1.3a2.1,2.1,0,1,0,2.1,2.1h0a2.05,2.05,0,0,0-2.1-2.1Z"/><circle class="b" cx="69.8" cy="10" r="2"/><path class="a" d="M62.4,1.8a.86.86,0,0,1,.8.8.8.8,0,0,1-1.6,0h0a.86.86,0,0,1,.8-.8m0-1.3a2.05,2.05,0,0,0-2.1,2.1,2.1,2.1,0,0,0,4.2,0h0A2.05,2.05,0,0,0,62.4.5Z"/><path class="a" d="M62.4,16.6a.8.8,0,1,1-.8.8h0a.79.79,0,0,1,.8-.8m0-1.3a2.1,2.1,0,1,0,2.1,2.1h0a2.05,2.05,0,0,0-2.1-2.1Z"/><path class="a" d="M49.8,20.5A9.5,9.5,0,1,0,59.3,30a9.56,9.56,0,0,0-9.5-9.5Zm7.7,11.2c0,.2-.3.4-.5.4L54.4,32l1.9,1.7a.48.48,0,0,1,0,.7c-.1.2-.4.2-.6.1l-2.3-1,1.1,2.4a.66.66,0,0,1-.2.7.47.47,0,0,1-.6-.1l-1.8-1.8.2,2.5a.44.44,0,0,1-.4.6c-.3,0-.6-.1-.6-.4L50,35.1l-.7,2.4a.66.66,0,0,1-.5.4h0a.46.46,0,0,1-.4-.5l-.2-2.5-1.6,2a.62.62,0,0,1-.7.1c-.2-.1-.2-.3-.2-.5l.8-2.4-2.2,1.3a.53.53,0,0,1-.7-.2.64.64,0,0,1,0-.6l1.6-2-2.5.4a.71.71,0,0,1-.6-.3.48.48,0,0,1,.2-.6l2.2-1.3L42,30.3a.5.5,0,0,1,0-1l2.5-.4-2.2-1.4a.49.49,0,0,1-.1-.7.37.37,0,0,1,.5-.2l2.5.5-1.5-2a.49.49,0,0,1,.1-.7.64.64,0,0,1,.6,0l2.1,1.4-.7-2.5c-.1-.3.1-.5.4-.6a.37.37,0,0,1,.5.2L48.2,25l.3-2.5a.5.5,0,0,1,1,0l.6,2.4,1.2-2.3a.57.57,0,0,1,.7-.2.55.55,0,0,1,.3.5l-.2,2.7L54,23.9a.43.43,0,0,1,.7.1.66.66,0,0,1,.1.6l-1.2,2.2,2.4-.9a.42.42,0,0,1,.6.3.66.66,0,0,1-.1.6l-1.9,1.7h2.6a.51.51,0,0,1,.2,1l-2.4.9,2.4,1C57.4,31.2,57.6,31.5,57.5,31.7Z"/><path class="a" d="M57.2,21.8a.8.8,0,1,1-.8.8h0a.79.79,0,0,1,.8-.8m0-1.3a2.1,2.1,0,1,0,2.1,2.1h0a2.05,2.05,0,0,0-2.1-2.1Z"/><path class="a" d="M57.2,36.6a.8.8,0,1,1-.8.8h0a.74.74,0,0,1,.8-.8m0-1.3a2.1,2.1,0,1,0,2.1,2.1h0a2.05,2.05,0,0,0-2.1-2.1Z"/><circle class="b" cx="49.8" cy="30" r="2"/><path class="a" d="M42.4,21.8a.8.8,0,1,1-.8.8h0a.86.86,0,0,1,.8-.8m0-1.3a2.1,2.1,0,1,0,2.1,2.1h0a2.05,2.05,0,0,0-2.1-2.1Z"/><path class="a" d="M42.4,36.6a.8.8,0,1,1-.8.8h0a.79.79,0,0,1,.8-.8m0-1.3a2.1,2.1,0,1,0,2.1,2.1h0a2.05,2.05,0,0,0-2.1-2.1Z"/><path class="a" d="M69.8,20.5A9.5,9.5,0,1,0,79.3,30a9.56,9.56,0,0,0-9.5-9.5Zm7.7,11.2c0,.2-.3.4-.5.4L74.4,32l1.9,1.7a.48.48,0,0,1,0,.7c-.1.2-.4.2-.6.1l-2.3-1,1.1,2.3a.66.66,0,0,1-.2.7.47.47,0,0,1-.6-.1l-1.8-1.8.2,2.5a.44.44,0,0,1-.4.6c-.3,0-.6-.1-.6-.4L70,35l-.7,2.4a.66.66,0,0,1-.5.4h0a.46.46,0,0,1-.4-.5l-.2-2.5-1.6,2a.62.62,0,0,1-.7.1c-.2-.1-.2-.3-.2-.5l.8-2.4-2.2,1.3a.53.53,0,0,1-.7-.2.64.64,0,0,1,0-.6l1.6-2-2.5.4a.71.71,0,0,1-.6-.3.48.48,0,0,1,.2-.6l2.2-1.3L62,30.2a.5.5,0,0,1,0-1l2.5-.4-2.2-1.4a.49.49,0,0,1-.1-.7.37.37,0,0,1,.5-.2l2.5.5-1.5-2a.49.49,0,0,1,.1-.7.64.64,0,0,1,.6,0l2.1,1.4-.7-2.5c-.1-.3.1-.5.4-.6a.37.37,0,0,1,.5.2l1.5,2.1.4-2.3a.5.5,0,0,1,1,0l.6,2.5,1.2-2.3a.57.57,0,0,1,.7-.2.55.55,0,0,1,.3.5l-.3,2.5L74,23.9a.43.43,0,0,1,.7.1.66.66,0,0,1,.1.6l-1.2,2.2,2.4-.9a.42.42,0,0,1,.6.3.66.66,0,0,1-.1.6l-1.9,1.7h2.6a.51.51,0,0,1,.2,1l-2.4.9,2.4,1C77.4,31.2,77.6,31.5,77.5,31.7Z"/><path class="a" d="M77.2,21.8a.8.8,0,1,1-.8.8h0a.79.79,0,0,1,.8-.8m0-1.3a2.1,2.1,0,1,0,2.1,2.1h0a2.05,2.05,0,0,0-2.1-2.1Z"/><path class="a" d="M77.2,36.6a.8.8,0,1,1-.8.8h0a.74.74,0,0,1,.8-.8m0-1.3a2.1,2.1,0,1,0,2.1,2.1h0a2.05,2.05,0,0,0-2.1-2.1Z"/><circle class="b" cx="69.8" cy="30" r="2"/><path class="a" d="M62.4,21.8a.8.8,0,1,1-.8.8h0a.86.86,0,0,1,.8-.8m0-1.3a2.1,2.1,0,1,0,2.1,2.1h0a2.05,2.05,0,0,0-2.1-2.1Z"/><path class="a" d="M62.4,36.6a.8.8,0,1,1-.8.8h0a.79.79,0,0,1,.8-.8m0-1.3a2.1,2.1,0,1,0,2.1,2.1h0a2.05,2.05,0,0,0-2.1-2.1Z"/><path class="a" d="M20.3,50a9.5,9.5,0,1,0,9.5-9.5A9.56,9.56,0,0,0,20.3,50Zm2.1,1.2,2.4-1-2.4-.9a.51.51,0,1,1,.2-1h2.6l-1.9-1.7a.62.62,0,0,1-.1-.7c.1-.2.4-.2.6-.1l2.4.9L25,44.5a.66.66,0,0,1,.2-.7.47.47,0,0,1,.6.1l1.9,1.7L27.4,43a.68.68,0,0,1,.4-.6.55.55,0,0,1,.5.3L29.5,45l.6-2.5a.54.54,0,0,1,.5-.5.64.64,0,0,1,.5.5l.3,2.5,1.5-2.1a.49.49,0,0,1,.7-.1c.2.1.2.3.2.5l-.7,2.5,2.1-1.4a.49.49,0,0,1,.7.1.64.64,0,0,1,0,.6l-1.5,2,2.5-.5c.3-.1.5.1.6.4s0,.4-.2.5l-2.2,1.4,2.5.4a.5.5,0,0,1,0,1l-2.5.5,2.2,1.3a.5.5,0,0,1-.4.9l-2.5-.4,1.6,2a.49.49,0,0,1-.1.7.64.64,0,0,1-.6,0L33.1,54l.7,2.4a.49.49,0,0,1-.3.6.37.37,0,0,1-.5-.2l-1.6-2-.2,2.5a.66.66,0,0,1-.4.5h0a.51.51,0,0,1-.5-.4L29.6,55l-1.1,2.3a.55.55,0,0,1-.6.4c-.3,0-.4-.3-.4-.6l.2-2.5-1.8,1.8a.48.48,0,0,1-.7,0,.47.47,0,0,1-.1-.6l1.1-2.3-2.3,1c-.3.1-.5,0-.7-.3a.66.66,0,0,1,.1-.6l1.9-1.7-2.6.1c-.2,0-.5-.2-.5-.4S22.1,51.2,22.4,51.2Z"/><path class="a" d="M22.4,41.8a.8.8,0,1,1-.8.8h0a.86.86,0,0,1,.8-.8m0-1.3a2.1,2.1,0,1,0,2.1,2.1h0a2.05,2.05,0,0,0-2.1-2.1Z"/><path class="a" d="M22.4,56.6a.8.8,0,1,1-.8.8h0a.79.79,0,0,1,.8-.8m0-1.3a2.1,2.1,0,1,0,2.1,2.1h0a2.05,2.05,0,0,0-2.1-2.1Z"/><circle class="b" cx="29.8" cy="50" r="2"/><path class="a" d="M37.2,41.8a.8.8,0,1,1-.8.8h0a.79.79,0,0,1,.8-.8m0-1.3a2.1,2.1,0,1,0,2.1,2.1h0a2.05,2.05,0,0,0-2.1-2.1Z"/><path class="a" d="M37.2,56.6a.8.8,0,1,1-.8.8h0a.74.74,0,0,1,.8-.8m0-1.3a2.1,2.1,0,1,0,2.1,2.1h0a2.05,2.05,0,0,0-2.1-2.1Z"/><path class="a" d="M.3,50a9.56,9.56,0,0,0,9.5,9.5,9.5,9.5,0,1,0,0-19A9.56,9.56,0,0,0,.3,50Zm2.1,1.2,2.4-1-2.4-.9a.44.44,0,0,1-.4-.6.44.44,0,0,1,.6-.4H5.1L3.2,46.6a.62.62,0,0,1-.1-.7c.1-.2.4-.2.6-.1l2.4.9L4.9,44.5a.66.66,0,0,1,.2-.7.47.47,0,0,1,.6.1l1.9,1.7L7.3,43a.68.68,0,0,1,.4-.6.55.55,0,0,1,.5.3L9.4,45l.6-2.5a.54.54,0,0,1,.5-.5.64.64,0,0,1,.5.5l.3,2.5,1.5-2.1a.49.49,0,0,1,.7-.1c.2.1.2.3.2.5L13,45.8l2.1-1.4a.49.49,0,0,1,.7.1.64.64,0,0,1,0,.6l-1.5,2,2.5-.5c.3-.1.5.1.6.4s0,.4-.2.5L15,48.9l2.5.4a.5.5,0,0,1,0,1l-2.5.5,2.2,1.3a.5.5,0,0,1-.4.9l-2.5-.4,1.6,2a.49.49,0,0,1-.1.7.64.64,0,0,1-.6,0L13,54l.7,2.4a.49.49,0,0,1-.3.6.37.37,0,0,1-.5-.2l-1.6-2-.2,2.5a.66.66,0,0,1-.4.5h0a.51.51,0,0,1-.5-.4L9.5,55,8.4,57.3a.55.55,0,0,1-.6.4c-.3,0-.4-.3-.4-.6l.2-2.5L5.8,56.4a.48.48,0,0,1-.7,0,.47.47,0,0,1-.1-.6l1.1-2.3-2.3,1c-.3.1-.5,0-.7-.3a.66.66,0,0,1,.1-.6l1.9-1.7-2.5.3c-.2,0-.5-.2-.5-.4S2.1,51.2,2.4,51.2Z"/><path class="a" d="M2.4,41.8a.8.8,0,0,1,0,1.6.86.86,0,0,1-.8-.8h0a.86.86,0,0,1,.8-.8m0-1.3a2.1,2.1,0,0,0,0,4.2,2.05,2.05,0,0,0,2.1-2.1h0a2.05,2.05,0,0,0-2.1-2.1Z"/><path class="a" d="M2.4,56.6a.8.8,0,0,1,0,1.6.86.86,0,0,1-.8-.8h0a.79.79,0,0,1,.8-.8m0-1.3a2.1,2.1,0,0,0,0,4.2,2.05,2.05,0,0,0,2.1-2.1h0a2.05,2.05,0,0,0-2.1-2.1Z"/><circle class="b" cx="9.8" cy="50" r="2"/><path class="a" d="M17.2,41.8a.8.8,0,1,1-.8.8h0a.79.79,0,0,1,.8-.8m0-1.3a2.1,2.1,0,1,0,2.1,2.1h0a2.05,2.05,0,0,0-2.1-2.1Z"/><path class="a" d="M17.2,56.6a.8.8,0,1,1-.8.8h0a.74.74,0,0,1,.8-.8m0-1.3a2.1,2.1,0,1,0,2.1,2.1h0a2.05,2.05,0,0,0-2.1-2.1Z"/><path class="a" d="M20.3,70a9.5,9.5,0,1,0,9.5-9.5h0A9.56,9.56,0,0,0,20.3,70Zm2.1,1.2,2.4-1-2.4-.9a.51.51,0,0,1,.2-1h2.6l-1.9-1.7a.62.62,0,0,1-.1-.7c.1-.2.4-.2.6-.1l2.4.9L25,64.5a.66.66,0,0,1,.2-.7.47.47,0,0,1,.6.1l1.9,1.7L27.4,63a.68.68,0,0,1,.4-.6.55.55,0,0,1,.5.3L29.5,65l.6-2.5a.54.54,0,0,1,.5-.5.64.64,0,0,1,.5.5l.3,2.5,1.5-2.1a.49.49,0,0,1,.7-.1c.2.1.2.3.2.5l-.7,2.5,2.1-1.4a.49.49,0,0,1,.7.1.64.64,0,0,1,0,.6l-1.5,2,2.5-.5c.3-.1.5.1.6.4s0,.4-.2.5l-2.2,1.4,2.5.4a.5.5,0,0,1,0,1l-2.5.5,2.2,1.3a.5.5,0,0,1-.4.9l-2.5-.4,1.6,2a.49.49,0,0,1-.1.7.64.64,0,0,1-.6,0L33.1,74l.7,2.4a.49.49,0,0,1-.3.6.37.37,0,0,1-.5-.2l-1.6-2-.2,2.5a.66.66,0,0,1-.4.5h0a.51.51,0,0,1-.5-.4L29.6,75l-1.1,2.3a.55.55,0,0,1-.6.4c-.3,0-.4-.3-.4-.6l.2-2.5-1.8,1.8a.48.48,0,0,1-.7,0,.47.47,0,0,1-.1-.6l1.1-2.3-2.3,1c-.3.1-.5,0-.7-.3a.66.66,0,0,1,.1-.6l1.9-1.7-2.6.1c-.2,0-.5-.2-.5-.4S22.1,71.2,22.4,71.2Z"/><path class="a" d="M22.4,61.8a.8.8,0,1,1-.8.8h0a.86.86,0,0,1,.8-.8m0-1.3a2.1,2.1,0,1,0,2.1,2.1h0a2.05,2.05,0,0,0-2.1-2.1Z"/><path class="a" d="M22.4,76.6a.8.8,0,1,1-.8.8h0a.79.79,0,0,1,.8-.8m0-1.3a2.1,2.1,0,1,0,2.1,2.1h0a2.05,2.05,0,0,0-2.1-2.1Z"/><circle class="b" cx="29.8" cy="70" r="2"/><path class="a" d="M37.2,61.8a.8.8,0,1,1-.8.8h0a.79.79,0,0,1,.8-.8m0-1.3a2.1,2.1,0,1,0,2.1,2.1h0a2.05,2.05,0,0,0-2.1-2.1Z"/><path class="a" d="M37.2,76.6a.8.8,0,1,1-.8.8h0a.74.74,0,0,1,.8-.8m0-1.3a2.1,2.1,0,1,0,2.1,2.1h0a2.05,2.05,0,0,0-2.1-2.1Z"/><path class="a" d="M.3,70a9.56,9.56,0,0,0,9.5,9.5,9.5,9.5,0,1,0,0-19h0A9.56,9.56,0,0,0,.3,70Zm2.1,1.2,2.4-1-2.4-.9a.44.44,0,0,1-.4-.6.44.44,0,0,1,.6-.4H5.1L3.2,66.6a.62.62,0,0,1-.1-.7c.1-.2.4-.2.6-.1l2.4.9L4.9,64.5a.66.66,0,0,1,.2-.7.47.47,0,0,1,.6.1l1.9,1.7L7.3,63a.68.68,0,0,1,.4-.6.55.55,0,0,1,.5.3L9.4,65l.6-2.5a.54.54,0,0,1,.5-.5.64.64,0,0,1,.5.5l.3,2.5,1.5-2.1a.49.49,0,0,1,.7-.1c.2.1.2.3.2.5L13,65.8l2.1-1.4a.49.49,0,0,1,.7.1.64.64,0,0,1,0,.6l-1.5,2,2.5-.5c.3-.1.5.1.6.4s0,.4-.2.5L15,68.9l2.5.4a.5.5,0,0,1,0,1l-2.5.5,2.2,1.3a.5.5,0,0,1-.4.9l-2.5-.4,1.6,2a.49.49,0,0,1-.1.7.64.64,0,0,1-.6,0L13,74l.7,2.4a.49.49,0,0,1-.3.6.37.37,0,0,1-.5-.2l-1.6-2-.2,2.5a.66.66,0,0,1-.4.5h0a.51.51,0,0,1-.5-.4L9.5,75,8.4,77.3a.55.55,0,0,1-.6.4c-.3,0-.4-.3-.4-.6l.2-2.5L5.8,76.4a.48.48,0,0,1-.7,0,.47.47,0,0,1-.1-.6l1.1-2.3-2.3,1c-.3.1-.5,0-.7-.3a.66.66,0,0,1,.1-.6l1.9-1.7L2.6,72c-.2,0-.5-.2-.5-.4S2.1,71.2,2.4,71.2Z"/><path class="a" d="M2.4,61.8a.8.8,0,0,1,0,1.6.86.86,0,0,1-.8-.8h0a.86.86,0,0,1,.8-.8m0-1.3a2.1,2.1,0,0,0,0,4.2,2.05,2.05,0,0,0,2.1-2.1h0a2.05,2.05,0,0,0-2.1-2.1Z"/><path class="a" d="M2.4,76.6a.8.8,0,0,1,0,1.6.86.86,0,0,1-.8-.8h0a.79.79,0,0,1,.8-.8m0-1.3a2.1,2.1,0,0,0,0,4.2,2.05,2.05,0,0,0,2.1-2.1h0a2.05,2.05,0,0,0-2.1-2.1Z"/><circle class="b" cx="9.8" cy="70" r="2"/><path class="a" d="M17.2,61.8a.8.8,0,1,1-.8.8h0a.79.79,0,0,1,.8-.8m0-1.3a2.1,2.1,0,1,0,2.1,2.1h0a2.05,2.05,0,0,0-2.1-2.1Z"/><path class="a" d="M17.2,76.6a.8.8,0,1,1-.8.8h0a.74.74,0,0,1,.8-.8m0-1.3a2.1,2.1,0,1,0,2.1,2.1h0a2.05,2.05,0,0,0-2.1-2.1Z"/></svg>