<svg xmlns="http://www.w3.org/2000/svg" viewBox="0 0 40 40"><defs><style>.a,.b{fill:none;stroke:#000;stroke-miterlimit:10;}.a{stroke-width:2px;}.b{stroke-width:4px;}.c{fill:#218272;}</style></defs><title>borderSides</title><circle class="a" cx="5.6" cy="34.7" r="3.6"/><circle class="a" cx="14.5" cy="34.7" r="3.6"/><circle class="a" cx="14.5" cy="25.8" r="3.6"/><circle class="a" cx="5.6" cy="25.8" r="3.6"/><line class="b" y1="30" x2="20" y2="30"/><line class="b" x1="10" y1="40" x2="10" y2="20"/><circle class="a" cx="5.6" cy="14.7" r="3.6"/><circle class="a" cx="14.5" cy="14.7" r="3.6"/><circle class="a" cx="14.5" cy="5.8" r="3.6"/><circle class="a" cx="5.6" cy="5.8" r="3.6"/><line class="b" y1="10" x2="20" y2="10"/><line class="b" x1="10" y1="20" x2="10"/><polygon class="c" points="24.2 34.2 30.2 23.5 36.2 34.2 24.2 34.2"/><polygon class="c" points="24.2 26.2 36.2 26.2 30.2 36.9 24.2 26.2"/><polygon class="c" points="24.2 14.2 30.2 3.5 36.2 14.2 24.2 14.2"/><polygon class="c" points="24.2 6.2 36.2 6.2 30.2 16.9 24.2 6.2"/></svg>