<svg xmlns="http://www.w3.org/2000/svg" viewBox="0 0 40 40"><defs><style>.a,.b{fill:none;stroke:#000;stroke-miterlimit:10;}.a{stroke-width:2px;}.b{stroke-width:4px;}.c{fill:#218272;}</style></defs><title>flatfourGreen400-09</title><circle class="a" cx="5.3" cy="5.4" r="3.6"/><circle class="a" cx="5.3" cy="14.3" r="3.6"/><circle class="a" cx="14.2" cy="14.3" r="3.6"/><circle class="a" cx="14.2" cy="5.4" r="3.6"/><line class="b" x1="10" y1="-0.2" x2="10" y2="19.8"/><line class="b" y1="9.8" x2="20" y2="9.8"/><circle class="a" cx="25.3" cy="5.4" r="3.6"/><circle class="a" cx="25.3" cy="14.3" r="3.6"/><circle class="a" cx="34.2" cy="14.3" r="3.6"/><circle class="a" cx="34.2" cy="5.4" r="3.6"/><line class="b" x1="30" y1="-0.2" x2="30" y2="19.8"/><line class="b" x1="20" y1="9.8" x2="40" y2="9.8"/><polygon class="c" points="5.8 24 16.5 30 5.8 36 5.8 24"/><polygon class="c" points="13.8 24 13.8 36 3.1 30 13.8 24"/><polygon class="c" points="25.8 24 36.5 30 25.8 36 25.8 24"/><polygon class="c" points="33.8 24 33.8 36 23.1 30 33.8 24"/></svg>