<svg xmlns="http://www.w3.org/2000/svg" viewBox="0 0 344 344"><defs><style>.a{fill:none;}.b{fill:#fff;}</style></defs><title>logoCoretechne</title><path class="a" d="M125.83,241.37h0c-.9-1.71-1.91-3.37-2.92-5,1,1.61,2,3.27,2.92,5Z"/><path class="a" d="M115.87,232.75q-.64-1.17-1.26-2.38Q115.23,231.58,115.87,232.75Z"/><path class="a" d="M239.06,170.14l2-5.25c-.52,1.37-1.46,3.52-2.23,5.3Z"/><path class="a" d="M189.72,150.07c-9.15-2.52-9.15-2.52-15.07,3.23,4.41,8.42,8.71,17,13.34,25.36,4.77,8.63,7.51,18.28,12,25.78,13.33,2.82,23.63-4.05,34.63-6.51,7.28,7.44,7.83,17.48,12.85,25,2.8,1.3,5.37,2.08,7.21,5,2,3.15,5.36,5.88,10,3.23-4.3-7.37-8.45-14.41-12.52-21.49s-6.73-15.09-11.73-21.74c-6.44.27-11.69,3.43-17.36,5.1-5.85,1.72-11.08,6.09-18.1,4.55l-3.59-25.47c7.83,4.33,7.56,11.69,10.34,18.3,5.53.11,9.53-1.85,13.3-5V154.2l-11.41-7.63-7.27,3.76-11.55-3Z"/><path class="a" d="M128.8,143.8c2.69-1.58,2.56-3.39,1.56-5.3-4-7.62-8.05-15.2-12-22.81C111.55,102.81,104.85,89.88,98,77a30.1,30.1,0,0,0-3.46-4.33c-.66,1-1.08,1.34-1,1.48Q109.75,107,126,139.86A32,32,0,0,0,128.8,143.8Z"/><path class="a" d="M196.52,228.2c.1-5.24,3.11-7.93,6.45-10.58,3.14-2.49,8-3.18,9.6-8.17-5.42-1.88-8.76,3.67-13.88,2.83-6.65-6.2-7.46-16.35-14.07-23.73l-8.89,4.77,18.82,34.1Z"/><path class="a" d="M154.26,157.54l18.87,28.86,9.47-4.67a222.78,222.78,0,0,0-15.69-27.22C161.75,153.87,157.63,153.75,154.26,157.54Z"/><path class="a" d="M126.07,241.88l0,.09Z"/><path class="a" d="M117.18,235h0Z"/><path class="a" d="M119.94,231.68c.94,1.52,2,3.08,3,4.7C121.9,234.77,120.88,233.2,119.94,231.68Z"/><path class="a" d="M136.65,190.45l-3.33-19.92C140.72,173.9,142.11,180.75,136.65,190.45Z"/><path class="a" d="M232.41,262.23c1.43-2.39,1-3.48,2.16-5.48.91-1.52,3.51-4,4.41-5.48C241.8,256.73,239.68,260.63,232.41,262.23Z"/><path class="a" d="M254.76,114.28c2.36-2.87,7.93-9.76,8-13.39C257.07,105.59,253.64,110,254.76,114.28Z"/><path class="a" d="M257.64,151.65c2.2-1.84,4.69-4.45,5.15-7.05,1.12-6.2,5.09-9.81,9.49-13.45A114.79,114.79,0,0,0,281,123c.63-.64.55-2,1.29-5-3.71,2.78-5.84,4.23-7.81,5.89-2.18,1.84-4.2,3.88-7.89,7.32.37-3.52,0-5.31.74-6.13,2.85-3.23,6.16-6,9-9.27.84-.95.75-2.72,1.27-4.84-7.09,2.26-8.95,9.23-15.91,12.26-6.46-6.38-13.16-12.48-22.34-14.28s-17.94-.84-25.92,4.29c-7.46,4.8-14.6,10-17.84,18.49.72.85.93,1.3,1.14,1.3a34.32,34.32,0,0,0,5.66-.17c6.15-1,11-.11,13.8,6.49,1.76,4.15,5.65,6.12,10.15,6.45,4.38-10.62,6.94-13.31,14.1-14.2-1.82,6.79-9.68,11-7.46,19.32,1.8,1.45,3.76,3.22,5.92,4.72s4.42,2.65,6.9,4.1"/><path class="a" d="M193.84,252.81c8.8-9.25,18.9-20.15,18.73-21.74-.55,0-4.76-4.79-6.43-6.72a.41.41,0,0,0-.73.25c-.14,3,2.6,9.39-1.09,12-1.47,1.05-3.88-6.69-3.88-6.69s2.13,7.29.48,9.37c-1.17,1.46-4.78,4.56-9.11,8l.35.7A34.22,34.22,0,0,1,193.84,252.81Z"/><path class="a" d="M218.74,90.79c-4.15,5.58-3.08,10.6,2.38,16.62C223,103.21,220.82,95.5,218.74,90.79Z"/><path class="b" d="M221.5,286c.8-1.55,1.79-4.34.64-6.45C221.12,283.21,220.31,284.59,221.5,286Z"/><path class="b" d="M216,285.15c1.65-.58,2.08-1.8,1.94-3.85A5.26,5.26,0,0,0,216,285.15Z"/><path d="M249.21,136.8a8.69,8.69,0,0,0-3.83,3.75c0,1.39-.72,5.48-.35,6.17,1.4-.2,4.22-2.33,4.9-3.28C251.26,141.57,252.13,138.52,249.21,136.8Z"/><path class="a" d="M244.16,182.69c1.66,2.75,3.44,5.49,5,8.33,4.5,8.08,8.86,16.23,13.39,24.29,1.74,3.1,3.36,6.46,9.39,8.24-8.39-15.88-15.9-30.11-23.45-44.31-.28-.53-1-.84-1.93-1.63a32,32,0,0,0-4.33.93c-2.12.73-4.15,1.73-7.76,3.28Z"/><path class="a" d="M201.07,104c.69,2.15.77,3.17,1.29,3.86a27,27,0,0,0,3.33,3.05"/><path class="a" d="M189.72,150.07c-9.15-2.52-9.15-2.52-15.07,3.23,4.41,8.42,8.71,17,13.34,25.36,4.77,8.63,7.51,18.28,12,25.78,13.33,2.82,23.63-4.05,34.63-6.51,7.28,7.44,7.83,17.48,12.85,25,2.8,1.3,5.37,2.08,7.21,5,2,3.15,5.36,5.88,10,3.23-4.3-7.37-8.45-14.41-12.52-21.49s-6.73-15.09-11.73-21.74c-6.44.27-11.69,3.43-17.36,5.1-5.85,1.72-11.08,6.09-18.1,4.55l-3.59-25.47c7.83,4.33,7.56,11.69,10.34,18.3,5.53.11,9.53-1.85,13.3-5V154.2l-11.41-7.63-7.27,3.76-11.55-3Z"/><path class="a" d="M207.29,140.28a1.91,1.91,0,0,0,0-1.79c-1.93-1.9-3.4-.91-5.18,1.74C204.29,141.85,205.87,142.63,207.29,140.28Z"/><path class="a" d="M196.52,228.2c.1-5.24,3.11-7.93,6.45-10.58,3.14-2.49,8-3.18,9.6-8.17-5.42-1.88-8.76,3.67-13.88,2.83-6.65-6.2-7.46-16.35-14.07-23.73l-8.89,4.77,18.82,34.1Z"/><path class="a" d="M230.06,166.32c2.87,2.84,3.58,7.52,7.64,6.52.2-.52.62-1.51,1.12-2.66l.23,0,2-5.25-8.11-4.56Z"/><path class="a" d="M184.26,74.06c-2.09-2.24-3-4-4-4.08s-2.34,1.32-3.52,2.07l.64,2Z"/><path class="a" d="M154.26,157.54l18.87,28.86,9.47-4.67a222.78,222.78,0,0,0-15.69-27.22C161.75,153.87,157.63,153.75,154.26,157.54Z"/><path class="a" d="M254.76,114.28c2.36-2.87,7.93-9.76,8-13.39C257.07,105.59,253.64,110,254.76,114.28Z"/><path class="a" d="M173.48,74.78c-.11-4.92-.11-4.92-8-8.91C167.61,72.76,167.63,72.78,173.48,74.78Z"/><path class="a" d="M218.74,90.79c-4.15,5.58-3.08,10.6,2.38,16.62C223,103.21,220.82,95.5,218.74,90.79Z"/><path class="a" d="M221.5,286c.8-1.55,1.79-4.34.64-6.45C221.12,283.21,220.31,284.59,221.5,286Z"/><path class="a" d="M219.15,284.81c1.51-1.24.86-2.68.58-4C219.25,282,218.07,283.17,219.15,284.81Z"/><path class="a" d="M65.65,231c-6.24-11.73-6.18-27.81-6.77-29.49-2-.24-8.11,19.17-7.83,21s.67,3.46,1,4.94c1.79-1.41,3.37-2.61,4.9-3.89C57.36,223.19,65.06,231.82,65.65,231Z"/><path class="a" d="M216,285.15c1.65-.58,2.08-1.8,1.94-3.85A5.26,5.26,0,0,0,216,285.15Z"/><path class="a" d="M226.31,277.91c.12,1.92,3.85,12.95,8.66,11.1C236.2,286.44,227.51,279.54,226.31,277.91Z"/><path class="a" d="M227.44,288.5c1.82-1.79-1.49-7.4-2.94-10C223.47,281,223.78,288.07,227.44,288.5Z"/><path class="a" d="M128.8,143.8c2.69-1.58,2.56-3.39,1.56-5.3-4-7.62-8.05-15.2-12-22.81C111.55,102.81,104.85,89.88,98,77a30.1,30.1,0,0,0-3.46-4.33c-.66,1-1.08,1.34-1,1.48Q109.75,107,126,139.86A32,32,0,0,0,128.8,143.8Z"/><path class="a" d="M119.89,82.35c-.21,1.73-1,3.31-1.09,5.25a9.63,9.63,0,0,0,.77-.67c.75-.82,1.47-1.67,2.23-2.49a7.85,7.85,0,0,1,.78-.66c1.45,1,2.37,2.56,4,3.48a7.47,7.47,0,0,0-.64-2.5c-.18-.79-.44-1.57-.66-2.35a4.62,4.62,0,0,1,1.77-.78c.54-.22,1.11-.34,1.65-.54a5.81,5.81,0,0,0,1.82-.71,5.2,5.2,0,0,0-.65-.27c-1.18-.28-2.36-.53-3.53-.82a5.44,5.44,0,0,1-.91-.42c.39-1.81,1.11-3.45,1.44-5.48-.43.4-.68.61-.9.84-.86.92-1.71,1.85-2.57,2.76a1.05,1.05,0,0,1-1.1.43c-.14-.14-.36-.32-.54-.54-.76-.87-1.51-1.76-2.29-2.63-.2-.22-.37-.58-.89-.37.24.84.52,1.66.71,2.49a6.16,6.16,0,0,1,.47,2.6c-.83.26-1.67.48-2.48.78a8.88,8.88,0,0,0-2.68,1c1,.43,1.86.43,2.66.72S119.1,81.7,119.89,82.35Z"/><path class="a" d="M86.69,171.67c-3.69-4.68-7.18-8-11.77-10.06-3.72,5.21-7.77,16.14-9.27,25.17a39.64,39.64,0,0,0,17.79-5.15Z"/><path class="a" d="M76.64,115.46l5.75-3.19a30.47,30.47,0,0,0,4.7,2.66c.61.22,1.61-.66,2.82-1.21l-2.19-4.59c-.9-4.3,3.51-5.8.55-9.41l-4,1.9-2.13-1.37-2.39,1.51c-1.46-1.12-2.86-2.53-5.4-.5l3,6.46C76.66,110.41,72.33,112.46,76.64,115.46Z"/><path class="a" d="M76.67,96.24l5.75-3.19a30.48,30.48,0,0,0,4.7,2.66c.61.22,1.61-.66,2.82-1.21l-2.19-4.59c-.9-4.3,3.51-5.8.55-9.41l-6.39,3c-2.55-.16-3.82-4.45-7.51-1.5l3,6.46C76.69,91.2,72.36,93.25,76.67,96.24Z"/><path class="a" d="M114.61,230.36q.62,1.21,1.26,2.38t1.31,2.26h0a39.52,39.52,0,0,0,10.25,11.69,33.76,33.76,0,0,0-1.32-4.73l0-.09c-.08-.19-.16-.36-.24-.51h0c-.9-1.71-1.91-3.37-2.92-5s-2-3.18-3-4.7L127.59,219C122.3,221.59,119.24,226.59,114.61,230.36Z"/><path d="M343.78.27C327.47.27,2.73-.34.16.27c0,0-.35,341,0,343.6,3.15.17,331.77.19,343.62,0C344,339.49,344.15,2.81,343.78.27ZM270.16,109.15c-1.68,2.38-6.49,7.62-12.22,8,3.07-3.81,8.09-9.1,9.93-11.38C270.67,106.09,271.38,107.41,270.16,109.15ZM262.7,101c0,3.62-5.61,10.52-8,13.39C253.61,110.11,257,105.68,262.7,101Zm-6.38-5c-.5,3.77-4.63,10.64-8.45,13.66C247.87,104.18,251.86,97.16,256.32,95.94Zm-10-4.83c2.54,4.54-2.74,13.42-4.25,16.56C241.62,104,242.13,94.09,246.34,91.11Zm-9.77-1.75c2.88,4,2,7.43-1.41,16.85C232.54,100.41,234.19,93.3,236.58,89.36ZM239.35,109c9.18,1.79,15.87,7.9,22.34,14.28,7-3,8.81-10,15.91-12.26-.51,2.12.15,4.68-.69,5.63-2.86,3.22-6.17,5.56-9,8.79-.73.83-1,2.29-1.33,5.82,3.69-3.44,5.71-5.47,7.89-7.32,2-1.66,4.1-3.11,7.81-5.89-.74,3-.66,4.32-1.29,5a114.79,114.79,0,0,1-8.72,8.19c-4.4,3.65-8.38,7.25-9.49,13.45-.47,2.6-2.95,5.21-5.15,7.05a30.13,30.13,0,0,0-3.84,4.13c-2,2.5-4.09,5.19-6.69,6.94-2.48-1.46-6.06-5.62-8.17-7.08s-4.13-3.27-5.92-4.72c-2.22-8.3,5.64-12.53,7.46-19.32-7.15.9-9.72,3.59-14.1,14.2-4.5-.33-8.39-2.3-10.15-6.45-2.81-6.6-7.66-7.52-13.8-6.49a34.32,34.32,0,0,1-5.66.17c-.21,0-.42-.45-1.14-1.3,3.24-8.52,10.38-13.7,17.84-18.49C221.41,108.2,230.23,107.26,239.35,109Zm-4.77,89c-11,2.45-21.3,9.32-34.63,6.51-4.49-7.5-7.23-17.14-12-25.78-4.62-8.38-8.92-16.94-13.34-25.36,5.91-5.75,5.91-5.75,15.07-3.23l5-2.7,11.55,3,7.27-3.76,11.41,7.63v31.29c-3.78,3.12-7.77,5.07-13.3,5-2.78-6.61-2.5-14-10.34-18.3l3.59,25.47c7,1.55,12.25-2.83,18.1-4.55,5.68-1.67,10.92-4.83,17.36-5.1,5,6.65,7.63,14.61,11.73,21.74s8.22,14.12,12.52,21.49c-4.6,2.65-8-.08-10-3.23-1.84-2.93-4.41-3.72-7.21-5C242.41,215.51,241.86,205.47,234.58,198Zm-50-9.39c6.61,7.38,7.42,17.53,14.07,23.73,5.12.84,8.46-4.7,13.88-2.83-1.62,5-6.46,5.68-9.6,8.17-3.34,2.65-6.36,5.34-6.45,10.58l-2-.78-18.82-34.1Zm-11.49-2.15-18.87-28.86c3.37-3.79,7.49-3.67,12.65-3a222.77,222.77,0,0,1,15.69,27.22ZM194.6,87.22a6,6,0,0,0-.88-.87c-.63-.4-1.62-.45-1.59-.33a6.79,6.79,0,0,0,.58,2.28c.33.43.76.73.69.73-1.17,0-1.71.77-2.5,0-.52-.53,1.23-.62.52-1.72-6.46-10,4.51,1.76,7,1-12.33,12.16-9,8.21-11,.15-.07-.26.26-.45.5-.33l3.46,1.84a1.68,1.68,0,0,0,1.8-.14c.1-.08.25.06.63-.17.18-.11,0,1.62.19,1.51s1-2.48,1.13-2.61.68-.14.65-.21S195,87.62,194.6,87.22Zm6.82,31.87a47.19,47.19,0,0,1-5.67-4.71c-.58-.62-.73-1.64-1.38-3.22C197.95,111.25,200.42,114.08,201.43,119.1ZM201,104c4.06,1.31,7.28,6.62,6.84,10.44a65.46,65.46,0,0,1-5.55-6.58C201.82,107.21,201.73,106.2,201,104Zm-9.48,15c1,.72,4.78,4.07,5.78,4.79-.51.55-1.23,1.44-1.74,2l-5-5.74ZM202,140.32c1.79-2.66,3.26-3.65,5.18-1.74a1.91,1.91,0,0,1,0,1.79C205.84,142.72,204.26,141.95,202,140.32Zm39,30.31c-.5,1.15-3.16,1.8-3.35,2.31-4.06,1-4.78-3.69-7.64-6.52l2.89-6c2.92,1.64,7.74,4.77,10.51,6.32-.85,2.25-3.89,2.16-4.39,3.48C238.95,170.26,241.1,170.61,241,170.63Zm20.2,43.92c-4.54-8.06-7.58-15.36-12.08-23.44-1.58-2.85-3.36-5.59-5-8.33l-9.68-.86c3.61-1.55,5.64-2.54,7.76-3.28a32,32,0,0,1,4.33-.93c1,.79,1.65,1.1,1.93,1.63,7.55,14.2,14.37,27,22.77,42.86C265.22,220.42,263,217.65,261.22,214.55ZM228.49,89.64c2.36,3.84,0,10.45-.24,16.13C223.54,98.34,224.55,94.57,228.49,89.64Zm-9.78,1.25c2.09,4.71,4.29,12.41,2.38,16.62C215.63,101.49,214.55,96.47,218.71,90.89ZM208,97.23c4.13,1.62,5.21,8.76,6.21,13C209.77,107.8,206.87,101.62,208,97.23Zm-27.5-41.12c2.23,1.67,23.93,8.65,25.38,14.32a9.86,9.86,0,0,1-.37,6.47c-.85,3-4.26,4.46-5.36,7.85-1.67-1.68-3.69-3.56-5.54-5.59s-7.67-8.3-10.16-11.24a.26.26,0,0,1,.07-.38C187.06,65.5,177.68,57.53,180.47,56.11Zm-3.4,15.79c1.07-.78,2.19-1.94,3.16-1.82s1.78,1.58,3.53,3.56a.31.31,0,0,1-.23.52H177.6a.35.35,0,0,1-.34-.25l-.43-1.34A.6.6,0,0,1,177.06,71.89Zm-3.62,2.57a.29.29,0,0,1-.38.28c-5.46-1.87-5.53-2-7.63-8.78C173.12,69.85,173.34,70,173.44,74.46ZM142.39,131c1.51-15,12.66-32.51,16.6-39.94a11.37,11.37,0,0,1,4.14-4.79,27,27,0,0,1-6.06-5.06c-2.67-3.84,2.08-6,3.7-8.64a.72.72,0,0,1,.87-.28c11.69,4.44,20.18,7.61,24.66,20a9.71,9.71,0,0,0-.08,4.12c.14.79,1.16,5.36-2.45-1.18a142.3,142.3,0,0,1,.25,25.06c-.73-1.1-1.83-2.11-2.12-3.32-1.08-4.52-1.8-9.13-2.87-13.65a17,17,0,0,0-2-4,.65.65,0,0,0-1.14,0c-2.51,5.93-1.5,10.23-.58,15,1,4.91,1.73,9.79,5.28,13.52s7.62,7.25,12.35,11.69l-3.3,4.14c-7.16-1.07-11.45-5.91-15.74-10.39-4.5-4.71-6-10.74-6.9-17.23-.89-6.2.44-12,1.51-17.58a.87.87,0,0,0-.42-.9c-2.68-1.6-3.79.27-4.75,1.75-4.08,6.28-4,13.21-2.75,20.22.57,3.21,1.51,6.36,2.34,9.79-6.28,5.36-12.75,6-20.2,6.94A33.93,33.93,0,0,1,142.39,131Zm-2.89,13.74a28.69,28.69,0,0,1,3.74-1.32l23.08-7.3a2.12,2.12,0,0,1,2.3.71l3.86,4.93a.72.72,0,0,1-.08,1c-7.27,6.28-25.23,10.39-35.45,10.24a.45.45,0,0,1-.44-.46C136.51,148.71,136.17,146.37,139.5,144.78ZM117.26,79.87c.81-.3,1.65-.52,2.48-.78a6.16,6.16,0,0,0-.47-2.6c-.2-.84-.47-1.65-.71-2.49.52-.22.69.15.89.37.77.86,1.52,1.75,2.29,2.63.19.21.4.4.54.54a1.05,1.05,0,0,0,1.1-.43c.87-.91,1.71-1.84,2.57-2.76.22-.23.46-.44.9-.84-.33,2-1.05,3.66-1.44,5.48a5.44,5.44,0,0,0,.91.42c1.17.29,2.36.54,3.53.82a5.21,5.21,0,0,1,.65.27,5.81,5.81,0,0,1-1.82.71c-.54.2-1.12.33-1.65.54a4.62,4.62,0,0,0-1.77.78c.22.78.48,1.55.66,2.35a7.47,7.47,0,0,1,.64,2.5c-1.63-.92-2.55-2.46-4-3.48a7.84,7.84,0,0,0-.78.66c-.75.82-1.48,1.66-2.23,2.49a9.64,9.64,0,0,1-.77.67c.06-1.93.88-3.52,1.09-5.25-.79-.65-1.78-.51-2.62-.82s-1.69-.3-2.66-.72A8.88,8.88,0,0,1,117.26,79.87ZM94.55,72.79A30.1,30.1,0,0,1,98,77.12c6.81,12.86,13.51,25.78,20.27,38.67,4,7.62,8.06,15.2,12,22.81,1,1.91,1.13,3.72-1.56,5.3A32,32,0,0,1,126,140q-16.29-32.81-32.46-65.68C93.47,74.13,93.88,73.75,94.55,72.79ZM81.88,83.63l6.39-3c3,3.61-1.45,5.11-.55,9.41l2.19,4.59c-1.21.56-2.21,1.43-2.82,1.21a30.48,30.48,0,0,1-4.7-2.66l-5.75,3.19c-4.31-3,0-5,.71-7.75l-3-6.46C78.05,79.18,79.33,83.47,81.88,83.63Zm.26,19.25c.73.47,4.88-2.5,6.1-3.08,3,3.61-1.45,5.11-.55,9.41l2.19,4.59c-1.21.56-2.21,1.43-2.82,1.21a30.48,30.48,0,0,1-4.7-2.66l-5.75,3.19c-4.31-3,0-5,.71-7.75l-3-6.46C76.88,99.31,81.32,103.4,82.13,102.88Zm-7.25,58.82c4.59,2,8.08,5.38,11.77,10.06l-3.25,10c-5.87,3.41-8.36,4.52-17.79,5.15C67.12,177.85,71.17,166.92,74.89,161.71ZM52.56,230.3c-.3-1.49-1.28-5.95-1.55-7.68s5.8-22.37,7.85-22.13c.59,1.68.52,18.93,6.76,30.65-.59.78-8.28-7.85-8.74-7.47C55.35,224.94,54,227.27,52.56,230.3Zm14.81,7a9.79,9.79,0,0,1-2.58,6.16c-.82-.67-1.81-1.42-2.73-2.24s-6.16-15.27-4.95-16.06c1.07.64,7.94,7.39,8.83,7.92C66.41,233.73,67.46,234.13,67.38,237.28ZM219.12,284.9c-1.08-1.64.1-2.81.58-4C220,282.22,220.63,283.67,219.12,284.9Zm8.29,3.69c-3.66-.43-4-7.53-2.94-10C225.92,281.19,229.23,286.8,227.41,288.59Zm7.52.51c-4.81,1.85-8.54-9.17-8.66-11.1C227.48,279.64,236.17,286.54,234.93,289.1Zm18.08-16c-9.52,11.77-16.73,13.31-26,3.46-11.91,3.61-14.05,12.31-38.53,12.76-3.33.06-14.59-5-19-6.09-20.2,9.38-42.47,18.32-74,3.09-1.61,0-30.22-41.6-27.68-41.68,13.26-.44,36.26,8.23,54,22.78,1.1.9,1.08-.28,2.65-.79l1.77-.37c-.74-5-3.78-3.43-5.18-4.81-5-6.38-9.2-12.34-14-17.82-4.55-5.21-9.67-9.91-14.53-14.84,3.49-6.65,9.17-11.37,10.54-18.45-2.9-5-6-9.67-8.48-14.7A27.67,27.67,0,0,1,94,171.54a26.59,26.59,0,0,1,10.2-11.92c5.3-3.45,10.78-6.49,17.87-7.24l3.6,6.64a14.46,14.46,0,0,0,7.82.33c.85-.16,1.7-.36,2.55-.57l2.54-.63c.85-.2,1.69-.38,2.54-.51a14.62,14.62,0,0,1,5.14,0,53.7,53.7,0,0,1,5,5.66c.69.89,1.38,1.82,2.08,2.79l1,1.48q.92,1.34,1.84,2.74t1.81,2.85l.89,1.46q.88,1.46,1.72,3c.84,1.48,1.65,3,2.42,4.45,3.32,6.39,5.8,12.5,6.47,16.59a8.75,8.75,0,0,1-.67.65l-.19.16q-.28.23-.57.44l-.15.1a8.22,8.22,0,0,1-.73.43l-.18.09-.61.27-.21.08c-.26.1-.52.18-.78.26l-.09,0-.73.17-.23,0-.7.1-.14,0-.83.06h-1.11l-.84,0h-.15l-.72,0-.25,0h-.18l-.17,0-1.91-.19-1.63-.16-.6-.05c-4.29-.32-8.55-.95-12.81-1.61-.64-.1-1.28-.18-1.92-.25l-.65-.07-1.33-.13-.72-.06-1.47-.12-2.1-.17c-4.26,5.75-7.85,11.34-12.21,16.24s-9.48,9.07-14.53,13.8c6.42,10.26,26.86,24.77,37.58,33.71,3.36,2.54,5.81,8.24,10.81,11.13,1.59.92,37.33,6.17,41.09.32-4.29-.24-11.41.16-18.3-.67A101.12,101.12,0,0,1,159.83,269c-2.64-1.05-1.64-6.31-2-9.24-.58-4.79-.21-12.39-3.61-16.35a1.68,1.68,0,0,1,0-1.56c.43-1-.89-3.42-1.67-2.79-1.14.92-1.53,2.43-1.93,2.3-1-.33-10.72-1.25-10.72-1.25s10.66-1.67,10-4.29c-1.06-4-16.61,1.8-16.61,1.8s11.67-8.29,14.39-10.75a.94.94,0,0,1,1.14-.11c6.51,4.32,21.61,34.16,22.28,36.06.43,0,9.64-6.74,17.77-13.13-10.25-16.54-21.22-38.8-22.69-46.51,1.48.67,2.86.85,3.4,1.62a63.24,63.24,0,0,1,4.62,7.68q8.87,17.42,17.57,34.92c4.33-3.47,5.74-7.45,6.9-8.91,1.65-2.08,1.72-8.48,1.72-8.48s2.41,7.75,3.88,6.69c3.7-2.64.95-9,1.09-12a.41.41,0,0,1,.73-.25c1.67,1.93,5.88,6.72,6.43,6.72.17,1.59-9.94,12.49-18.73,21.74,0,.15.09.3.14.45-.43.24,5.66,12.66,5.24,12.9a127,127,0,0,1-7.28-11.36C186.07,261,181.23,266,181.1,266.3c1.18.27,12.77.77,23.38,1.13,1.4-1.26,4.21-3.24,9.61-.9,4.4,1.91,7.77-.93,6.38-1.18-4-.74-5.4-1-6.19-4.08-.54-2.1,9.35-36,17.39-41.06-5.68,17.7-2.55,17.32-3.17,24.4.69-1.11,2-1.8,2.93-2.75,1.15-1.17,5.67-2.48,8.88-5.11,1.07-.87.34-4.75-.28-7a43.91,43.91,0,0,0,3.13,5.34c.6.38,3.35-1.54,3.83-1.84,1.2,1.64-19.78,12.63-18.35,14.59L254,236.28c7.62-2.54-12.33,21.47-8.53,21.11l32.83-14.56c-.79,2.08-24.08,16.73-25.11,19.4.58.53,29.18,3.1,30.59,4.39C283.35,268.16,256.28,273,253,273.09ZM122.88,236.47c1,1.61,2,3.27,2.92,5h0c.08.15.16.33.24.51l0,.09a11.84,11.84,0,0,0,1.51,2.76c-4.26-3.16-7.68-5.14-10.44-9.72h0q-.67-1.11-1.31-2.26t-1.26-2.38c4.63-3.78,7.69-8.78,13-11.36l-7.65,12.68C120.85,233.3,121.87,234.86,122.88,236.47Z"/><polygon points="144.94 262.32 126.11 266.25 126.11 266.25 144.94 262.32"/><path d="M233.83,259.7c-1.2,2-.73,3.09-2.16,5.48,7.27-1.6,9.39-5.5,6.57-11C237.34,255.72,234.74,258.18,233.83,259.7Z"/></svg>