<?xml version="1.0" encoding="utf-8"?>
<!-- Generator: Adobe Illustrator 21.0.2, SVG Export Plug-In . SVG Version: 6.00 Build 0)  -->
<svg version="1.1" xmlns="http://www.w3.org/2000/svg" xmlns:xlink="http://www.w3.org/1999/xlink" x="0px" y="0px"
	 viewBox="0 0 16.5 10" style="enable-background:new 0 0 16.5 10;" xml:space="preserve">
<style type="text/css">
	.st0{fill:#218272;}
	.st1{fill:none;stroke:#218272;stroke-width:2;stroke-miterlimit:10;}
	.st2{fill:none;stroke:#000000;stroke-width:2;stroke-miterlimit:10;}
	.st3{fill:none;stroke:#000000;stroke-width:4;stroke-miterlimit:10;}
	.st4{fill:none;stroke:#000000;stroke-width:3;stroke-linecap:round;stroke-linejoin:round;}
	.st5{fill:#EDE0D0;}
	.st6{fill:#FFF5EB;}
	.st7{fill:#989898;}
	.st8{fill:none;}
	.st9{fill:#FFFFFF;}
</style>
<g id="flat400">
</g>
<g id="Capa_2">
	<g>
		<g>
			<path class="st0" d="M15.2,5.1V4.9c0-0.4,0.3-0.8,0.8-0.8h0.3c-0.3-1.5-1.5-2.6-3-3v0.3c0,0.4-0.3,0.8-0.8,0.8h-0.2
				c-0.4,0-0.8-0.3-0.8-0.8V1.2c-1.5,0.3-2.6,1.5-3,3h0.3c0.4,0,0.8,0.3,0.8,0.8v0.2c0,0.4-0.3,0.8-0.8,0.8H8.5c0.3,1.5,1.5,2.6,3,3
				V8.5c0-0.4,0.3-0.8,0.8-0.8h0.2c0.4,0,0.8,0.3,0.8,0.8v0.3c1.5-0.3,2.6-1.5,3-3h-0.3C15.5,5.9,15.2,5.5,15.2,5.1z M14.7,6.1
				c0.1,0.1,0.1,0.3,0,0.5L14,7.3c-0.1,0.1-0.3,0.1-0.5,0l-1.1-1.1l-1.1,1.1c-0.1,0.1-0.3,0.1-0.5,0l-0.8-0.8
				c-0.1-0.1-0.1-0.3,0-0.5L11.2,5l-1.1-1.1c-0.1-0.1-0.1-0.3,0-0.5l0.8-0.8c0.1-0.1,0.3-0.1,0.5,0l1.1,1.1l1.1-1.1
				c0.1-0.1,0.3-0.1,0.5,0l0.8,0.8c0.1,0.1,0.1,0.3,0,0.5L13.6,5L14.7,6.1z"/>
		</g>
		<g>
			<path class="st0" d="M6.9,5.1V4.9c0-0.4,0.3-0.8,0.8-0.8H8c-0.3-1.5-1.5-2.6-3-3v0.3c0,0.4-0.3,0.8-0.8,0.8H4
				c-0.4,0-0.8-0.3-0.8-0.8V1.2c-1.5,0.3-2.6,1.5-3,3h0.3c0.4,0,0.8,0.3,0.8,0.8v0.2c0,0.4-0.3,0.8-0.8,0.8H0.3c0.3,1.5,1.5,2.6,3,3
				V8.5c0-0.4,0.3-0.8,0.8-0.8h0.2C4.6,7.8,5,8.1,5,8.5v0.3c1.5-0.3,2.6-1.5,3-3H7.7C7.2,5.9,6.9,5.5,6.9,5.1z M6.4,6.1
				c0.1,0.1,0.1,0.3,0,0.5L5.7,7.3c-0.1,0.1-0.3,0.1-0.5,0L4.1,6.2L3,7.3c-0.1,0.1-0.3,0.1-0.5,0L1.8,6.6c-0.1-0.1-0.1-0.3,0-0.5
				L2.9,5L1.8,3.9c-0.1-0.1-0.1-0.3,0-0.5l0.8-0.8c0.1-0.1,0.3-0.1,0.5,0l1.1,1.1l1.1-1.1c0.1-0.1,0.3-0.1,0.5,0l0.8,0.8
				c0.1,0.1,0.1,0.3,0,0.5L5.3,5L6.4,6.1z"/>
		</g>
	</g>
</g>
</svg>
