<svg xmlns="http://www.w3.org/2000/svg" viewBox="0 0 10 10"><title>nonPareilles</title><path d="M7.76,3.63C9.09,1.88,8,.8,6.37,2.14c-.6-2-2.14-2-2.74,0C2,.79.94,1.91,2.24,3.63c-1.88.6-1.88,2.14,0,2.74C1,8.11,2,9.29,3.63,7.86c.6,2,2.14,2,2.74,0C8,9.17,9,8,7.76,6.37,9.64,5.77,9.64,4.23,7.76,3.63ZM7.13,5.11a.7.7,0,0,1-.59.77H5.88v.66a.7.7,0,0,1-.77.59H4.89a.7.7,0,0,1-.77-.59V5.88H3.47a.7.7,0,0,1-.59-.77V4.89a.7.7,0,0,1,.59-.77h.66V3.47a.7.7,0,0,1,.77-.59h.22a.7.7,0,0,1,.77.59v.66h.66a.7.7,0,0,1,.59.77Z"/></svg>